<svg width="293" height="141" viewBox="0 0 293 141" fill="none" xmlns="http://www.w3.org/2000/svg">
<g clip-path="url(#clip0_651_1130)">
<path d="M286.083 97.4314C287.628 105.485 288.955 114.54 291.233 123.354C292.565 128.495 291.721 130.556 286.312 131.425C271.997 133.738 257.75 136.405 243.513 139.14C238.279 140.139 235.514 138.721 234.588 133.158C230.761 110.403 226.866 87.6582 222.632 64.9625C221.462 58.6725 223.395 56.6093 229.567 55.6301C242.161 53.618 254.606 50.6923 267.098 48.089C272.807 46.8996 277.197 47.3556 278.373 54.5278C280.646 68.5718 284.604 82.3028 286.085 97.4483L286.083 97.4314Z" fill="#EAB421"/>
<path d="M273.168 122.938C267.504 125.038 265.529 122.501 265.358 117.972C265.136 111.891 261.926 111.108 256.865 112.464C253.303 113.429 249.597 113.879 245.957 114.544C237.565 116.069 233.818 112.646 236.567 104.508C240.662 92.3999 245.677 80.5572 250.833 68.8501C253.516 62.7649 260.086 63.8233 265.167 63.556C270.11 63.2912 268.684 68.6231 269.549 71.4938C271.218 76.9323 272.006 82.6194 273.309 88.1626C274.391 92.7683 273.408 99.1271 281.885 97.3469C284.704 96.7486 284.641 100.377 285.185 102.463C285.721 104.498 285.849 106.938 283.162 107.136C277.414 107.57 277.704 111.13 278.943 114.916C280.984 121.132 278.429 123.441 273.151 122.94L273.168 122.938Z" fill="#2E2B18"/>
<path d="M256.862 75.7363C258.848 83.9688 260.05 89.5268 261.552 95.0067C262.688 99.1542 261.739 101.802 257.162 102.083C253.938 102.273 250.009 105.248 247.696 102.292C245.723 99.7724 249.02 96.6116 250.045 93.7791C251.931 88.5192 253.998 83.3196 256.865 75.7533L256.862 75.7363Z" fill="#D4AF45"/>
</g>
<g clip-path="url(#clip1_651_1130)">
<path d="M220.491 102.935C219.947 112.595 217.295 121.914 215.922 131.452C215.586 133.784 214.348 134.234 212.212 133.852C193.67 130.488 175.116 127.121 156.543 123.92C152.918 123.289 152.885 121.381 153.413 118.484C158.707 89.8157 162.664 60.9171 168.618 32.3749C169.34 28.9007 170.155 25.4441 170.654 21.9396C171.095 18.809 172.591 18.2031 175.51 18.7593C193.256 22.1404 211.018 25.4402 228.798 28.5867C232.073 29.1626 233.046 30.4195 232.35 33.694C230.85 40.8122 229.649 47.9995 228.32 55.1625C228.168 61.6949 226.295 67.9355 225.119 74.2969C221.965 91.478 218.629 108.612 215.574 124.584C217.511 118.259 217.257 110.205 220.479 102.933L220.491 102.935Z" fill="#DD3B35"/>
<path d="M220.49 102.937L215.377 129.773C214.972 129.696 214.555 129.617 214.151 129.528C218.875 104.736 223.596 79.9558 228.319 55.1641C226.917 71.2822 223.43 87.0635 220.49 102.937Z" fill="#9E4843"/>
<path d="M209.294 74.6906C219.677 86.0956 219.073 103.57 208.173 114.724C198.584 124.539 182.785 124.984 171.946 115.407C163.809 108.21 162.172 98.7845 163.92 88.4749C164.154 87.1229 164.394 85.4832 166.161 85.4707C171.492 85.4028 176.674 86.6189 181.661 88.2915C183.761 88.9924 182.551 91.4346 182.463 93.0914C182.21 98.0755 183.728 101.639 189.254 102.247C194.521 102.829 196.618 99.5083 197.749 95.1489C199.731 87.5203 197.975 84.0075 190.68 81.8471C188.192 81.1082 187.526 80.1267 188.14 77.7273C188.67 75.6372 189.021 73.4769 189.251 71.3294C189.586 68.1187 190.264 66.2614 194.46 66.2301C200.903 66.1815 204.532 59.3604 201.989 53.362C200.979 50.9784 199.151 49.6069 196.594 49.4206C193.752 49.2162 191.117 50.508 190.473 53.0701C189.359 57.5291 186.862 57.3422 183.476 56.3963C181.218 55.7735 178.868 55.2535 176.531 55.1092C171.229 54.7733 170.542 52.3308 172.439 47.7923C176.124 38.9714 181.887 32.5448 191.816 31.9685C202.134 31.3699 211.801 33.1154 217.916 43.1052C224.067 53.162 220.458 67.379 209.298 74.6674L209.294 74.6906Z" fill="#D7DDD0"/>
</g>
<g clip-path="url(#clip2_651_1130)">
<path d="M56.7121 105.185C49.0322 107.021 41.287 108.642 33.6752 110.763C27.3722 112.527 24.4893 111.467 22.7591 104.167C16.6446 78.4012 9.45623 52.8923 2.81159 27.2534C0.187053 17.1132 0.626094 17.5674 10.3782 14.3622C24.5114 9.70854 38.9228 6.27874 53.3511 2.85926C62.5157 0.683365 63.8592 1.49495 66.2146 10.2084C72.8342 34.7206 79.7769 59.1412 85.2716 83.9366C85.3785 84.3842 85.4887 84.8453 85.5957 85.2929C87.7054 93.439 84.6326 98.4984 76.3773 100.471C69.8257 102.037 63.2741 103.603 56.7088 105.172L56.7121 105.185Z" fill="#D2D6C4"/>
<path d="M34.8473 58.6086C34.8695 57.1982 35.7873 56.9502 36.6676 56.7255C42.9681 55.1911 49.3409 53.2379 50.2872 45.714C51.3859 36.9636 49.6967 28.3921 43.5979 21.6916C39.0798 16.7353 28.0687 18.2198 24.2757 26.338C26.6189 28.0864 29.6305 28.8434 31.3864 31.621C33.4823 34.9196 33.7022 38.0643 31.9504 41.4364C30.0602 45.0711 26.5714 45.8045 23.0208 45.6781C19.4566 45.5549 16.9727 43.3384 15.7274 40.0517C13.4804 34.1368 15.3857 29.1222 19.5173 24.7654C27.2836 16.5579 44.615 12.9608 55.2306 17.2771C67.5975 22.3075 70.6827 35.5779 61.8995 45.6629C58.0314 50.1 52.9132 52.6136 46.3174 55.4373C52.9901 55.8211 58.2874 54.8992 63.5384 56.3685C78.2605 60.4919 83.5521 78.1241 72.5895 88.8303C62.223 98.964 49.3016 101.894 35.2096 98.7243C30.2293 97.6061 26.3651 94.5438 24.8796 89.3502C23.4985 84.5332 24.9147 80.5387 29.2606 77.9803C32.8389 75.8777 36.5799 76.2597 39.5521 79.0764C42.8998 82.2622 44.1527 86.7228 41.4715 90.4748C36.8732 96.9073 41.9941 96.6297 45.5791 97.0203C56.9367 98.2488 62.67 92.477 61.8996 81.0765C61.61 76.8587 60.7593 72.8182 59.1513 68.9156C55.6444 60.4343 49.998 57.3104 41.0124 58.612C38.9993 58.9067 36.7506 60.9209 34.8136 58.588L34.8473 58.6086Z" fill="#353423"/>
</g>
<g clip-path="url(#clip3_651_1130)">
<path d="M115.419 32.0897C123.064 32.046 130.709 31.9805 138.333 31.9805C142.167 31.9805 146.351 32.352 145.694 37.5309C143.415 55.7336 151.959 72.8656 150.557 90.9373C152.025 103.371 150.82 104.944 138.64 105.425C132.484 105.666 126.241 106.124 120.238 104.201C115.375 101.667 116.733 99.3503 120.786 97.777C125.277 96.0288 130.14 96.9029 134.828 96.5314C140.129 96.0943 143.678 94.4992 139.779 88.4243C139.187 87.5065 138.004 86.3046 138.311 85.6054C143.634 73.4338 132.637 63.5785 133.776 51.6473C134.85 40.2187 127.643 36.4601 118.201 43.2343C109.679 49.3528 102.866 57.7003 97.1921 66.5067C93.2051 72.6908 96.7102 77.4109 104.487 77.4546C107.028 77.4546 109.569 77.0175 112.111 77.236C121.268 78.0227 123.787 82.0216 119.515 90.1069C117.39 94.1277 116.339 98.1047 116.339 102.519C109 106.124 104.509 104.464 104.421 96.6407C104.334 89.5606 102.099 87.288 95.3301 87.135C84.7929 86.8728 86.7645 77.6294 84.771 71.3141C84.7929 69.9156 84.8367 68.5171 84.8586 67.1185C90.1162 51.1884 102.34 41.2676 115.419 32.0897Z" fill="#EAD398"/>
<path d="M84.749 71.3359C87.0711 82.109 93.3802 86.6979 104.575 84.7312C108.058 84.1194 110.446 84.4472 107.97 90.0413C103.874 99.2847 106.853 102.825 115.506 101.623L116.36 100.967L117.105 101.754C124.334 101.885 131.608 101.514 138.771 102.235C147.621 103.131 151.674 99.9403 150.601 90.9591C154.434 95.701 152.507 101.557 153.098 106.78C153.646 111.5 148.739 112.505 144.445 112.855C126.175 114.275 108.189 110.058 89.9409 110.451C82.9088 110.604 81.5944 102.825 83.106 99.1973C87.0054 89.8009 84.0479 80.5794 84.7709 71.3578L84.749 71.3359Z" fill="#E0DFD1"/>
<path d="M115.418 32.0906C111.19 41.9022 100.785 45.9011 94.607 54.0957C91.3867 58.3787 90.5543 64.7157 84.8366 67.1195C84.9242 59.0342 86.7863 51.1238 84.9242 42.82C83.2593 35.5433 88.4293 31.9595 95.1985 30.2988C102.209 28.5943 108.693 31.5006 115.44 32.0906H115.418Z" fill="#E0DFD1"/>
<path d="M117.105 101.753L116.317 101.6H115.506C113.491 96.7055 109.569 91.5484 117.346 87.9866C119.318 87.0688 119.822 85.3425 119.427 83.4632C118.836 80.7098 116.492 80.5569 114.279 80.5787C110.643 80.6224 106.962 80.5787 103.37 81.0376C99.7551 81.4747 95.5709 83.1354 93.906 78.5683C92.263 74.045 89.2618 69.1283 93.6431 64.2553C100.456 56.6944 106.984 48.8714 114.038 41.551C119.384 36.0224 126.92 35.9787 133.448 37.5739C139.384 39.038 136.558 45.6155 137.238 49.964C138.377 57.35 134.543 66.3531 144.313 70.8327C140.765 79.7702 144.883 88.4455 144.971 97.23C144.993 100.53 140.348 99.7211 137.588 100.027C130.775 100.836 123.721 98.7159 117.105 101.71V101.753Z" fill="#DD5D38"/>
<path d="M106.941 68.2334C109.088 61.7871 114.148 59.296 117.61 54.707C121.531 68.5612 120.326 70.0909 106.941 68.2334Z" fill="#ECC26E"/>
</g>
<defs>
<clipPath id="clip0_651_1130">
<rect width="59.6904" height="86.8224" fill="white" transform="translate(221.125 54.6699) rotate(-8.23012)"/>
</clipPath>
<clipPath id="clip1_651_1130">
<rect width="65.1168" height="107.171" fill="white" transform="translate(171.318 17.6367) rotate(10.7868)"/>
</clipPath>
<clipPath id="clip2_651_1130">
<rect width="67.1517" height="100.388" fill="white" transform="translate(0 15.6094) rotate(-13.4408)"/>
</clipPath>
<clipPath id="clip3_651_1130">
<rect width="70.6055" height="83.3655" fill="white" transform="translate(82.5146 29.7734)"/>
</clipPath>
</defs>
</svg>
