<svg width="337" height="111" viewBox="0 0 337 111" fill="none" xmlns="http://www.w3.org/2000/svg">
<g clip-path="url(#clip0_651_1148)">
<path d="M168.673 110.76C117.661 110.76 66.6477 110.744 15.6349 110.792C11.4161 110.796 7.48659 110.377 4.2661 107.303C1.60415 104.768 0.0671864 101.703 0.0553027 98.044C-0.000154588 79.8657 -0.0318444 61.6834 0.0434192 43.5051C0.0711479 36.615 5.98528 30.872 12.9254 30.8562C34.2408 30.8087 55.5562 30.8403 76.8717 30.8166C83.4315 30.8087 87.9354 26.3076 87.9829 19.8012C87.9988 17.6258 87.9711 15.4544 88.0067 13.279C88.0463 11.0799 88.494 8.95593 89.5873 7.02972C92.0868 2.61566 95.8935 0.0526589 100.976 0.0487037C145.722 -0.0145802 190.464 -0.00271422 235.21 0.0210175C242.602 0.0249728 248.255 5.63352 248.421 12.9745C248.473 15.2804 248.413 17.5863 248.453 19.8922C248.556 26.2839 253.087 30.7889 259.509 30.7968C280.757 30.8245 302.009 30.8087 323.257 30.8364C331.116 30.8483 336.717 36.437 336.733 44.2724C336.761 61.7269 336.662 79.1854 336.792 96.6399C336.848 103.926 333.124 108.284 326.834 110.547C325.594 110.994 324.089 110.756 322.706 110.756C293.076 110.764 263.442 110.764 233.812 110.764C212.1 110.764 190.389 110.764 168.677 110.764L168.673 110.76Z" fill="#EACC1F"/>
<path d="M168.559 108.363C117.348 108.363 66.1369 108.363 14.926 108.363C13.088 108.363 11.25 108.454 9.4595 107.75C5.16156 106.065 2.4283 102.355 2.42038 97.739C2.38869 79.7544 2.37681 61.7739 2.42434 43.7893C2.44019 37.8367 7.29667 33.2209 13.4643 33.213C34.5817 33.1853 55.6991 33.1813 76.8164 33.213C80.6509 33.2209 83.9189 32.0383 86.6205 29.3052C88.9933 26.9004 90.3164 24.0447 90.3718 20.6511C90.4075 18.3452 90.3797 16.0393 90.3995 13.7334C90.459 7.01736 95.0381 2.39762 101.729 2.39367C146.075 2.3818 190.425 2.3818 234.771 2.39367C241.438 2.39367 245.973 6.91848 246.041 13.5277C246.06 15.6359 246.029 17.744 246.056 19.8521C246.156 27.5847 251.745 33.1655 259.485 33.1734C280.535 33.1972 301.589 33.2921 322.639 33.122C328.799 33.0746 334.523 37.6231 334.436 44.8493C334.226 62.2366 334.376 79.6279 334.364 97.0191C334.36 103.988 329.987 108.351 322.988 108.351C271.511 108.359 220.039 108.355 168.563 108.359L168.559 108.363Z" fill="#206E40"/>
<path d="M167.953 107.887C116.805 107.887 65.6536 107.871 14.506 107.906C7.30449 107.91 2.87187 103.073 2.84414 96.4599C2.7768 80.5163 2.73719 64.5726 2.89564 48.633C2.92733 45.3462 2.51536 41.7746 4.47617 38.82C5.99333 36.5378 7.78381 34.5879 10.9884 34.311C19.0258 33.6188 27.0632 34.0579 35.1005 33.9985C48.5648 33.8918 62.029 34.0144 75.4933 33.9432C79.1733 33.9234 82.7661 33.4092 85.8242 30.9332C89.2665 28.1448 90.8629 24.5336 91.1243 20.2382C91.3184 17.0977 90.9065 13.9454 91.4967 10.797C92.1463 7.33618 95.3391 4.04541 99.1855 3.47586C101.887 3.07638 104.569 3.15153 107.262 3.15153C149.699 3.13175 192.136 3.13966 234.577 3.14362C239.908 3.14362 242.856 5.11729 244.813 9.84777C245.157 10.6823 245.173 11.5011 245.197 12.3554C245.304 16.2157 245.042 20.0602 245.91 23.9245C246.853 28.125 252.446 33.4488 257.12 33.6188C279.014 34.4218 300.912 33.8918 322.809 33.8601C328.7 33.8522 333.992 38.6578 333.948 44.9981C333.826 62.4566 333.905 79.9111 333.901 97.3696C333.901 102.009 330.625 105.85 326.208 107.23C324.231 107.847 322.354 107.867 320.421 107.867C269.602 107.887 218.783 107.883 167.961 107.883L167.953 107.887Z" fill="#017459"/>
<path d="M41.985 71.2706C42.6505 66.4056 43.316 61.5406 43.9815 56.6757C44.3816 53.7409 44.845 50.814 45.158 47.8673C45.2808 46.7164 45.6412 46.2338 46.8455 46.305C48.8815 46.4237 51.3969 45.7117 52.823 46.6649C54.2055 47.5905 53.7103 50.3156 54.0034 52.2577C54.9422 58.4397 55.8533 64.6257 56.7961 70.9265C57.4854 70.4597 57.3744 69.7715 57.4537 69.198C58.4242 62.1577 59.4026 55.1134 60.3058 48.0651C60.4682 46.7915 60.8484 46.1903 62.2388 46.305C63.6134 46.4197 65.0196 46.4355 66.3902 46.2932C68.0896 46.1191 68.351 46.7876 68.1054 48.3064C66.5685 57.7911 65.0989 67.2876 63.6094 76.7842C62.73 82.3769 61.8031 87.9617 61.0227 93.5703C60.8366 94.9111 60.3889 95.3027 59.058 95.3066C53.5677 95.3304 53.5875 95.366 52.7636 89.8682C51.8247 83.6189 50.8463 77.3775 49.8719 71.1321C49.8045 70.6971 49.6579 70.2778 49.2499 69.8546C48.4102 75.5225 47.5704 81.1943 46.7346 86.8622C46.378 89.2709 45.9859 91.6757 45.6888 94.0924C45.5779 94.9981 45.2253 95.4055 44.3142 95.2869C44.2509 95.279 44.1835 95.2869 44.1162 95.2869C38.4793 95.4886 38.4516 95.4965 37.5128 89.9473C35.1598 75.9931 32.8544 62.0311 30.4657 48.0809C30.2241 46.661 30.4697 46.1903 31.9393 46.3011C33.3852 46.4079 34.8508 46.4237 36.2927 46.3011C37.6792 46.1824 38.0634 46.7796 38.2417 48.0414C39.2953 55.4693 40.4283 62.8894 41.5374 70.3094C41.5849 70.6298 41.6602 70.9423 41.7236 71.2587L41.9771 71.2706L41.985 71.2706Z" fill="white"/>
<path d="M92.9504 95.2856C89.1872 95.2856 89.1753 95.2856 88.5534 91.6112C88.2048 89.5347 87.8562 87.4542 87.6106 85.3619C87.4918 84.3652 87.0917 84.0131 86.0974 84.0527C84.3822 84.116 82.663 84.1278 80.9518 84.0527C79.9219 84.0092 79.601 84.4403 79.4663 85.3856C79.0702 88.1899 78.5354 90.9704 78.167 93.7787C78.0205 94.9099 77.6441 95.3884 76.4399 95.3133C74.8634 95.2144 73.267 95.2144 71.6904 95.3093C70.3555 95.3924 70.2287 94.9257 70.4347 93.7114C73.065 78.4718 75.6437 63.2204 78.1948 47.965C78.4087 46.6795 78.9038 46.2207 80.2308 46.2959C82.4016 46.4145 84.5961 46.458 86.759 46.2879C88.4425 46.1574 88.8386 46.9129 89.0723 48.3565C90.6291 57.9718 92.2532 67.5751 93.8694 77.1824C94.7527 82.439 95.6559 87.6955 96.5472 92.952C96.8113 94.5104 96.1379 95.2909 94.527 95.2935C94.0001 95.2935 93.4693 95.2935 92.9425 95.2935L92.9504 95.2856Z" fill="white"/>
<path d="M144.871 95.2785C142.391 95.2838 140.971 94.0999 140.612 91.7267C140.295 89.6463 139.891 87.5777 139.662 85.4853C139.531 84.2869 139 83.8835 137.879 84.0733C137.752 84.0931 137.614 84.0733 137.483 84.0812C135.597 84.2315 133.126 83.2506 131.977 84.4768C130.884 85.6436 131.113 88.0563 130.769 89.9192C130.448 91.6516 130.848 93.9535 129.652 94.9621C128.451 95.9747 126.225 95.1243 124.466 95.2983C122.799 95.4605 122.157 95.1243 122.498 93.202C125.144 78.18 127.703 63.1421 130.218 48.0963C130.452 46.6922 130.903 46.2097 132.333 46.2848C134.702 46.4035 137.079 46.36 139.452 46.3046C140.434 46.2809 140.83 46.621 140.993 47.6019C143.552 63.0353 146.134 78.4687 148.749 93.8942C148.927 94.9344 148.757 95.3656 147.64 95.2904C146.721 95.2271 145.794 95.2785 144.871 95.2785Z" fill="white"/>
<path d="M199.349 46.3195C204.467 46.3076 204.412 46.3195 205.24 51.2991C207.517 64.9804 209.878 78.6497 212.14 92.3349C212.734 95.9223 213.012 95.2143 209.696 95.2736C204.875 95.3567 204.875 95.3092 204.091 90.5036C204.059 90.3098 204.035 90.112 204.004 89.9182C203.029 83.5819 203.033 83.6017 196.541 84.0526C195.618 84.1159 195.325 84.4362 195.198 85.3143C194.79 88.1779 194.247 91.0217 193.851 93.8853C193.705 94.9374 193.324 95.3646 192.231 95.3053C190.785 95.2262 189.327 95.2064 187.881 95.3092C186.38 95.416 185.837 95.1312 186.154 93.3988C187.751 84.6024 189.209 75.7821 190.706 66.9659C191.752 60.8115 192.833 54.6611 193.804 48.4909C194.057 46.8732 194.572 46.0031 196.386 46.2878C197.353 46.4421 198.359 46.3155 199.349 46.3116L199.349 46.3195Z" fill="white"/>
<path d="M232.156 95.2736C229.189 95.2736 226.218 95.2261 223.251 95.2933C222.047 95.321 221.504 95.0877 221.508 93.6915C221.556 78.4163 221.548 63.1411 221.512 47.8619C221.512 46.6675 221.845 46.2601 223.073 46.2719C229.074 46.3234 235.08 46.3352 241.081 46.264C242.463 46.2482 242.8 46.7624 242.693 47.9964C242.535 49.8198 243.438 52.1692 242.356 53.3479C241.251 54.5542 238.87 53.6643 237.052 53.7236C234.81 53.8027 232.564 53.783 230.326 53.7236C229.308 53.6959 228.936 54.0124 228.951 55.0684C229.007 58.6242 229.019 62.18 228.951 65.7357C228.928 66.954 229.47 67.1398 230.5 67.1161C232.873 67.0647 235.25 67.1438 237.623 67.0766C238.653 67.0489 239.053 67.3653 238.973 68.4134C238.827 70.3752 239.758 72.875 238.617 74.1565C237.532 75.3747 234.996 74.4966 233.103 74.5243C228.979 74.5836 228.979 74.5441 228.975 78.6299C228.975 80.9991 229.078 83.3762 228.94 85.7374C228.845 87.3393 229.245 87.9049 230.952 87.8337C234.311 87.6913 237.682 87.8575 241.041 87.7625C242.392 87.723 242.812 88.1858 242.685 89.4514C242.495 91.3341 243.509 93.8457 242.261 94.9295C241.192 95.8589 238.744 95.234 236.906 95.2617C235.321 95.2854 233.741 95.2657 232.156 95.2617L232.156 95.2736Z" fill="#FEFFFE"/>
<path d="M157.891 70.7314C157.891 63.2243 157.923 55.7133 157.863 48.2063C157.851 46.7903 158.148 46.1139 159.705 46.3077C161.515 46.5292 163.944 45.5127 164.993 46.7389C165.893 47.791 165.318 50.1325 165.318 51.9005C165.334 63.165 165.378 74.4256 165.279 85.6902C165.263 87.5847 165.845 88 167.6 87.917C170.563 87.7786 173.538 87.917 176.505 87.8537C177.657 87.83 178.204 88.1148 178.121 89.3883C178.026 90.8953 178.058 92.4181 178.121 93.929C178.164 94.9494 177.812 95.3054 176.77 95.2975C170.963 95.2579 165.156 95.2342 159.349 95.3054C157.998 95.3212 157.879 94.7319 157.883 93.6482C157.915 86.0066 157.899 78.369 157.899 70.7275L157.887 70.7275L157.891 70.7314Z" fill="#FEFFFF"/>
<path d="M113.268 70.9255C113.268 78.4959 113.236 86.0623 113.299 93.6326C113.311 95.0051 112.943 95.5351 111.544 95.3848C109.671 95.1791 107.231 96.1996 106.05 94.9616C104.977 93.8343 105.749 91.4493 105.745 89.618C105.725 75.8617 105.761 62.1053 105.698 48.3489C105.69 46.7352 106.082 46.0905 107.758 46.2843C109.508 46.486 111.794 45.5684 112.903 46.6482C114.02 47.7359 113.236 50.018 113.248 51.7702C113.291 58.154 113.264 64.5378 113.268 70.9215L113.268 70.9255Z" fill="#FEFFFF"/>
<path d="M286.021 60.3292C288.061 59.7241 288.58 60.6813 288.85 62.4493C289.864 69.0664 291.056 75.6559 292.13 82.2651C292.229 82.8702 292.969 84.0805 291.512 83.9935C290.43 83.9302 288.687 85.0258 288.41 82.7714C288.331 82.1187 288.109 81.4661 288.145 80.8254C288.267 78.6658 287.024 78.4206 285.293 78.563C284.445 78.6302 283.954 78.7647 283.89 79.7298C283.827 80.7067 283.569 81.6718 283.466 82.6487C283.359 83.6613 282.959 84.0924 281.842 84.0924C279.41 84.0885 279.374 84.132 279.786 81.7311C280.876 75.3909 282.044 69.0624 283.019 62.7064C283.328 60.701 283.878 59.5461 286.017 60.3332L286.021 60.3292Z" fill="#FCFDFD"/>
<path d="M299.965 77.4905C300.583 73.7567 301.201 70.0269 301.819 66.2932C302.045 64.9286 302.254 63.5641 302.488 62.2034C302.801 60.3919 304.215 59.6286 305.962 60.2377C306.612 60.4631 306.493 60.8705 306.41 61.3293C305.091 68.5833 303.764 75.8332 302.453 83.0872C302.326 83.7912 301.973 84.0127 301.256 84.0839C297.398 84.4715 297.327 84.4122 296.653 80.5598C295.576 74.4014 294.439 68.255 293.369 62.0967C293.251 61.4163 292.454 60.1942 294.071 60.2614C295.172 60.3089 296.76 59.3873 297.077 61.6497C297.818 66.926 298.737 72.1786 299.585 77.4391C299.711 77.4549 299.838 77.4707 299.961 77.4905L299.965 77.4905Z" fill="#FBFDFD"/>
<path d="M219.053 29.4382L219.053 9.04492C223.192 12.4781 227.066 15.6977 230.948 18.9093C231.626 19.471 231.142 19.7834 230.723 20.1236C226.932 23.1494 223.141 26.1751 219.053 29.4422L219.053 29.4382Z" fill="#FEFEFE"/>
<path d="M165.536 15.6659C165.536 17.0463 165.525 18.4267 165.536 19.8071C165.548 20.788 165.152 22.0062 166.935 21.9034C167.513 21.8678 167.454 22.5402 167.466 22.995C167.481 23.5131 167.157 23.7307 166.725 23.6793C165.509 23.5408 165.521 24.3002 165.544 25.1467C165.572 26.1315 165.509 27.1203 165.556 28.1052C165.596 28.9358 165.315 29.2839 164.439 29.2799C163.607 29.276 163.421 28.8725 163.473 28.1803C163.477 28.1131 163.481 28.0459 163.473 27.9826C163.267 26.5903 164.182 24.7235 163.021 23.9126C162.078 23.2561 160.351 23.7228 158.969 23.699C158.311 23.6872 157.65 23.7267 156.992 23.6832C156.43 23.6437 155.705 23.9759 155.348 23.3905C154.968 22.7696 155.34 22.1486 155.72 21.5711C158.188 17.8453 160.664 14.1234 163.077 10.3619C163.58 9.57484 164.182 9.207 165.025 9.44431C165.952 9.70536 165.485 10.5478 165.509 11.1213C165.572 12.6322 165.529 14.1432 165.529 15.658L165.536 15.6659Z" fill="#F6FAFA"/>
<path d="M141.484 18.0162C144.74 19.626 145.77 21.4494 145.267 24.5068C144.783 27.4416 143.044 29.0197 139.729 29.4865C138.002 29.7277 136.306 29.5893 134.694 28.8813C134.116 28.6282 133.636 28.3117 134.001 27.5365C134.353 26.789 134.829 26.5556 135.55 27.054C136.592 27.7738 137.772 27.7976 138.968 27.7264C141.662 27.5721 143.037 26.2471 143.143 23.7157C143.254 20.9906 142.034 19.5509 139.297 19.1949C139.166 19.1791 139.02 19.2028 138.905 19.1553C138.287 18.8943 137.107 19.63 137.122 18.2654C137.138 17.0828 138.176 17.5376 138.786 17.4427C139.808 17.2805 140.676 16.8929 141.381 16.1454C142.339 15.1328 142.474 13.8909 142.121 12.645C141.753 11.3556 140.672 10.8453 139.416 10.6832C138.125 10.521 136.92 10.8256 135.823 11.4901C135.269 11.8262 134.928 11.8183 134.536 11.233C134.128 10.6239 134.342 10.3233 134.841 9.95541C136.813 8.49988 140.759 8.49593 142.724 9.97914C145.481 12.0596 144.974 15.5956 141.484 18.0123L141.484 18.0162Z" fill="#F4F9F8"/>
<path d="M204.709 29.2524C203.259 29.2524 201.806 29.2207 200.356 29.2642C199.472 29.2919 199.235 28.9162 199.258 28.0856C199.306 26.2622 200.051 24.7473 201.322 23.5291C202.748 22.1646 204.301 20.9345 205.767 19.6134C207.058 18.4506 208.163 17.1374 208.369 15.322C208.781 11.7029 206.282 9.8123 202.895 11.1571C202.649 11.252 202.392 11.3509 202.194 11.5131C201.52 12.0589 201.033 11.9165 200.601 11.1966C200.094 10.3581 200.839 10.1604 201.283 9.86371C203.453 8.41214 206.88 8.52684 208.718 10.0813C210.576 11.6515 211.118 14.8355 209.934 17.3668C208.801 19.7874 206.654 21.2707 204.693 22.92C203.632 23.8139 202.566 24.688 201.908 25.9497C201.417 26.8871 201.493 27.4053 202.744 27.3736C204.788 27.3222 206.832 27.3657 208.88 27.3578C209.641 27.3578 210.358 27.3182 210.306 28.4415C210.255 29.549 209.455 29.2326 208.868 29.2484C207.486 29.284 206.099 29.2603 204.713 29.2603L204.713 29.2524L204.709 29.2524Z" fill="#F5FAF9"/>
<path d="M183.037 29.2606C181.785 29.2606 180.522 29.142 179.286 29.2883C177.515 29.5019 177.301 28.612 177.535 27.2237C177.887 25.1432 179.23 23.7075 180.708 22.3706C181.928 21.271 183.231 20.2624 184.443 19.155C185.477 18.2097 186.333 17.0943 186.531 15.6664C186.745 14.1397 186.768 12.5576 185.406 11.5016C184.019 10.4257 182.447 10.6116 180.914 11.2642C180.672 11.3671 180.442 11.5016 180.228 11.6558C179.515 12.1739 179.187 11.6716 178.826 11.1654C178.323 10.4574 178.969 10.2359 179.349 9.95505C181.357 8.4837 184.942 8.49161 186.796 9.94714C188.713 11.4501 189.343 14.5946 188.246 17.1694C187.165 19.7087 184.946 21.2117 182.95 22.9046C181.944 23.7589 180.926 24.5855 180.236 25.7326C179.595 26.7965 179.642 27.4175 181.143 27.374C183.116 27.3147 185.093 27.3542 187.069 27.3621C187.767 27.3621 188.563 27.1683 188.539 28.3588C188.511 29.6127 187.62 29.2211 186.99 29.2448C185.675 29.2923 184.356 29.2606 183.041 29.2606L183.037 29.2606Z" fill="#F5F9F9"/>
<path d="M121.333 25.3257C121.78 25.3297 122.093 24.5544 122.541 24.9816C122.981 25.4048 122.735 25.9783 122.406 26.4174C120.984 28.3198 118.845 28.8578 116.69 29.1425C113.177 29.6093 109.893 28.8617 106.906 26.8683C106.546 26.627 106.015 25.476 105.472 26.7654C105.314 27.1412 105.191 27.5763 104.684 27.3627C104.185 27.153 104.042 26.6112 104.22 26.184C104.854 24.6771 103.848 23.9216 102.996 23.0435C102.834 23.178 102.707 23.2294 102.663 23.3244C102.355 24.0086 102.869 25.48 101.602 25.1992C100.489 24.9539 101.202 23.7199 101.372 22.9684C101.784 21.1767 101.907 19.2228 103.59 17.8424C104.24 19.0329 103.075 19.8556 103.388 20.8563C104.957 20.354 105.131 18.4594 106.502 17.7949C107.556 19.6737 105.741 20.5913 104.961 22.2129C105.995 21.0264 106.419 19.8081 107.294 18.9222C107.773 18.5464 108.003 17.5616 108.768 17.9334C109.338 18.2102 109.005 19.0408 108.914 19.5629C108.649 21.1055 109.528 22.5887 109.172 24.155C109.481 23.2334 109.786 22.3158 110.095 21.3942C110.261 20.8998 110.392 20.1602 110.994 20.2867C111.707 20.437 111.077 21.1885 111.263 21.6355C111.343 22.6164 111.148 23.5775 111.034 24.5426C110.942 25.3297 110.962 26.271 110.051 26.5242C109.112 26.7852 108.273 26.3106 107.583 25.6303C107.377 25.4246 107.437 25.0093 107.029 24.9381C107.401 25.9507 108.273 26.2987 109.16 26.5716C112.662 27.6554 116.144 27.9401 119.491 26.0495C120.077 25.7173 120.703 25.5433 121.321 25.3257L121.333 25.3257Z" fill="#EEF6F6"/>
<path d="M122.192 47.0564C120.616 44.264 119.043 41.4755 117.467 38.6871C117.13 38.0898 117.146 37.6864 117.974 37.6785C118.172 37.6785 118.37 37.6785 118.564 37.6706C121.292 37.5783 122.656 38.8901 122.656 41.606C122.656 43.3622 122.656 45.1183 122.656 46.8744C122.501 46.9338 122.347 46.9971 122.192 47.0564Z" fill="#EBF1F0"/>
<path d="M121.583 20.1094C122.014 19.3856 121.761 18.1792 123.04 18.0408C123.543 18.8318 122.672 19.5636 122.965 20.3586C123.813 19.971 124.138 19.172 124.561 18.4561C124.752 18.1397 124.926 17.6176 125.409 17.9182C125.746 18.1278 125.797 18.6222 125.595 18.998C125.35 19.4568 125.12 20.0066 124.72 20.2795C123.028 21.4344 123.666 22.5221 124.886 23.8906C125.334 22.2571 125.698 20.7897 126.15 19.346C126.316 18.82 126.534 17.9973 127.267 18.2425C127.905 18.4561 127.39 19.1404 127.362 19.615C127.251 21.6163 126.039 23.3646 126.146 25.4806C126.189 26.335 125.005 26.3231 124.292 25.6982C123.472 24.9783 123.175 23.9381 122.68 22.973C122.109 23.4002 122.046 24.2941 121.242 24.4602C119.844 22.8939 120.834 21.5096 121.575 20.1094L121.583 20.1094Z" fill="#ECF5F4"/>
<path d="M121.333 25.3249C117.629 28.5603 110.958 28.8332 107.187 25.8905C106.827 25.6096 106.454 25.3011 106.221 24.9254C105.963 24.5101 105.991 23.9603 106.514 23.7546C106.993 23.5648 107.583 23.4857 107.702 24.2925C107.766 24.7395 107.647 25.3288 108.075 25.5701C108.708 25.93 109.481 26.4244 110.103 26.3176C110.792 26.199 110.784 25.2576 110.61 24.6169C110.301 23.4817 111.137 22.6471 111.279 21.6425C111.426 21.8007 111.576 21.9589 111.723 22.1171C112.242 22.5957 112.123 23.193 112.008 23.7744C111.893 24.3598 111.858 24.9491 111.79 25.5503C112.103 25.5147 111.964 25.2537 112.004 25.1073C112.131 24.6129 112.04 23.8654 112.618 23.7704C113.454 23.632 113.169 24.6722 113.715 25.0599C114.424 24.961 114.321 23.3828 115.264 23.8337C116.068 24.2174 115.229 25.313 115.835 26.199C116.191 23.9207 115.641 21.6742 116.865 19.7559C117.122 19.8824 117.383 20.009 117.641 20.1395C118.215 20.808 117.811 21.508 117.673 22.1765C117.039 25.2457 117.237 25.4712 120.307 25.0757C120.501 25.0875 120.671 25.1508 120.822 25.2734C120.996 25.2932 121.166 25.313 121.341 25.3288L121.333 25.3249Z" fill="#387663"/>
<path d="M108.752 10.7944C107.987 11.1385 107.702 11.3324 107.397 11.3917C106.878 11.4945 106.45 12.5901 105.979 11.8544C105.519 11.1425 106.458 10.8142 106.993 10.482C107.155 10.3831 107.357 10.3238 107.547 10.2921C108.367 10.1616 109.342 9.55249 109.968 10.1932C110.479 10.7153 109.437 11.4194 109.5 12.3489C110.653 11.6527 111.275 10.6441 111.901 9.63555C112.095 9.32309 112.305 8.85637 112.784 9.21629C113.054 9.41801 113.069 9.7819 112.923 10.1181C112.574 10.9012 112.067 11.5657 111.437 12.1471C109.849 13.6185 109.881 14.366 111.532 15.8493C111.893 16.1736 112.887 16.3041 112.043 17.0912C111.481 17.6173 110.859 17.5619 110.293 17.02C109.556 16.3199 109.294 15.3469 108.811 14.3739C108.296 15.0424 108.237 15.7781 108.09 16.4781C107.963 17.0872 107.607 17.4511 106.981 17.2534C106.403 17.0714 106.506 16.5177 106.605 16.0826C106.993 14.37 107.884 12.8393 108.756 10.7944L108.752 10.7944Z" fill="#E7F1F0"/>
<path d="M116.857 19.752C116.754 21.9669 116.088 24.1423 116.449 26.3889C116.52 26.82 116.389 27.176 115.878 27.2234C115.395 27.2709 115.09 26.9584 115.062 26.555C114.999 25.7165 115.042 24.8661 115.042 23.9406C114.65 24.7672 114.274 25.5583 113.874 26.3968C112.82 25.9459 113.149 24.8938 112.725 24.1977C112.682 24.2847 112.642 24.3598 112.61 24.431C112.226 25.2814 113.03 27.0257 111.525 26.8556C110.673 26.7607 111.442 25.1548 111.442 24.2372C111.442 23.5292 111.624 22.8212 111.723 22.1093C111.786 21.9946 111.862 21.8838 111.905 21.7612C112.151 21.1047 112.246 20.0882 113.133 20.2582C113.854 20.3967 113.521 21.3855 113.64 21.9985C113.704 22.315 113.719 22.6432 113.771 23.0704C115.173 22.2279 114.967 19.9932 116.861 19.752L116.857 19.752Z" fill="#E4EEED"/>
<path d="M120.465 25.2866C119.796 26.0855 118.77 25.603 117.918 25.9827C117.007 26.3861 116.88 25.2984 116.837 24.5786C116.742 23.036 117.403 21.624 117.637 20.1368C118.029 19.856 118.184 19.0096 118.81 19.3497C119.451 19.7017 118.821 20.2871 118.73 20.742C118.481 21.98 117.831 23.1626 118.33 24.9701C119.915 22.5851 119.039 19.6306 121.016 17.7637C121.559 18.5191 121.071 19.0926 121.151 19.6582C121.079 21.5528 120.656 23.4078 120.469 25.2866L120.465 25.2866Z" fill="#E4F0EF"/>
<path d="M119.237 11.0598C119.598 10.9055 119.95 10.7433 120.315 10.597C121.685 10.0472 122.941 10.067 123.595 11.6214C124.094 12.8119 123.06 14.311 121.61 14.7461C121.147 14.8845 120.406 14.4336 120.315 15.4343C120.263 16.0157 120.235 16.9808 119.293 16.7276C118.413 16.4943 119.063 15.5885 118.901 15.0111C119.174 13.7533 118.516 12.4678 119.023 11.218C119.095 11.1666 119.166 11.1151 119.237 11.0637L119.237 11.0598Z" fill="#DCE9E8"/>
<path d="M116.056 11.0675C115.304 11.3958 114.547 11.7241 113.759 12.0682C114.651 12.5771 114.453 13.2231 113.165 14.0062C113.62 14.7024 114.444 13.7689 114.935 14.4769C114.595 15.7545 113.545 15.9404 112.487 15.6991C111.22 15.4104 111.743 14.295 111.865 13.5514C112.186 11.5738 113.466 10.403 115.082 10.3753C115.621 10.3674 115.989 10.5019 116.021 11.107L116.056 11.0635L116.056 11.0675Z" fill="#DAE7E6"/>
<path d="M116.021 11.1066C117.09 10.9207 118.14 9.47703 119.233 11.0591L119.261 11.0275C118.326 11.9926 117.819 12.9932 118.825 14.2431C119.091 14.5714 118.691 14.7929 118.481 15.0104C117.926 15.1607 117.376 15.402 116.809 15.4455C115.664 15.5365 115.11 15.1765 115.522 13.8397C115.795 12.9537 116.508 12.0994 116.053 11.0631L116.017 11.1066L116.021 11.1066Z" fill="#DBE9E8"/>
<path d="M113.351 16.5955C114.397 16.3345 115.439 16.0418 116.492 15.8243C116.778 15.7649 117.273 15.8163 117.388 15.9983C117.665 16.4294 117.257 16.7814 116.912 16.8843C116.037 17.1493 115.958 17.8731 115.779 18.5692C115.66 19.0241 115.882 19.8151 115.062 19.6846C114.31 19.5659 114.535 18.9173 114.686 18.4149C114.924 17.612 115.027 16.9119 113.795 17.1097C113.513 17.0504 113.387 16.8605 113.351 16.5916L113.351 16.5955Z" fill="#C1D9D5"/>
<path d="M118.485 15.0103C118.817 13.1671 117.074 14.9984 116.932 14.0017C116.746 13.3768 117.407 13.535 117.74 13.3135C117.934 13.183 118.18 12.9259 118.176 12.7281C118.156 11.68 118.132 11.68 119.265 11.0273C118.683 12.1941 120.323 13.3886 119.221 14.5515C119.095 14.686 119.004 14.856 118.897 15.0063C118.758 15.0063 118.619 15.0063 118.485 15.0063L118.485 15.0103Z" fill="#407E6B"/>
<path d="M107.302 18.926C107.124 19.3492 106.97 19.7804 106.764 20.1917C106.245 21.2398 105.702 22.2761 105.116 23.4152C104.11 22.6123 103.781 22.0072 104.981 21.1291C106.047 20.346 106.985 19.3571 106.51 17.8027C107.12 17.9372 106.882 18.661 107.302 18.93L107.302 18.926Z" fill="#497E6E"/>
<path d="M120.465 25.2865C120.358 23.3682 120.291 21.4578 121.146 19.6582C121.293 19.8085 121.44 19.9588 121.582 20.1091C121.602 21.5686 120.695 22.9608 121.249 24.4599C120.952 24.6458 120.826 24.9266 120.814 25.2668C120.695 25.2707 120.58 25.2786 120.461 25.2865L120.465 25.2865Z" fill="#5E8D7F"/>
<path d="M113.351 16.5957C113.498 16.7697 113.648 16.9398 113.795 17.1138C113.676 17.6755 113.581 18.2411 113.43 18.7948C113.327 19.1864 113.359 19.8469 112.685 19.6175C112.131 19.4237 112.329 18.866 112.456 18.4507C112.654 17.7902 112.737 17.0624 113.347 16.5957L113.351 16.5957Z" fill="#CFE3E0"/>
<path d="M119.296 17.4701C118.726 18.5895 117.898 18.6132 116.829 18.4352C117.355 17.2209 118.219 17.2803 119.296 17.4701Z" fill="#B9D9D2"/>
<path d="M109.667 18.8067C110.119 18.0038 110.697 17.7783 111.45 17.9879C111.541 18.0117 111.656 18.3676 111.596 18.4507C111.109 19.1191 110.479 19.135 109.667 18.8067Z" fill="#D6ECE9"/>
<path d="M83.2773 59.8066C83.8596 60.04 83.9666 60.392 84.026 60.8073C84.7034 65.6802 85.3649 70.5531 86.0938 75.418C86.2443 76.4147 86.1017 76.7786 84.9727 76.8182C80.7659 76.9685 80.7817 77.0199 81.3799 72.9539C82.0216 68.611 82.6356 64.2603 83.2773 59.8066Z" fill="#0E7359"/>
<path d="M135.776 58.9047C136.564 64.4855 137.34 70.0664 138.164 75.6433C138.295 76.5293 138.034 76.7429 137.17 76.8101C132.86 77.1424 132.848 77.1661 133.45 72.8509C134.1 68.1877 134.785 63.5323 135.455 58.873C135.562 58.8849 135.669 58.8928 135.78 58.9047L135.776 58.9047Z" fill="#097357"/>
<path d="M199.5 59.0918C200.268 64.6371 200.989 70.1033 201.813 75.5576C201.968 76.5899 201.69 76.76 200.756 76.8074C196.557 77.025 196.565 77.0527 197.163 72.7849C197.753 68.5528 198.323 64.3167 198.91 60.0846C198.953 59.7761 198.922 59.4201 199.5 59.0879L199.5 59.0918Z" fill="#0C7357"/>
<path d="M285.606 68.1758C286.853 70.1574 286.877 72.4 287.103 74.5635C287.198 75.4772 286.073 75.0065 285.503 75.0698C284.73 75.1528 284.691 74.6149 284.774 74.0256C285.055 72.0757 285.328 70.1257 285.606 68.1758Z" fill="#27765E"/>
<path d="M157.344 21.836C159.4 18.7232 161.238 15.9427 163.076 13.1582C163.211 13.1938 163.342 13.2294 163.476 13.265C163.476 15.7805 163.46 18.2961 163.484 20.8116C163.492 21.5789 163.151 21.8518 162.423 21.8439C160.87 21.8242 159.321 21.836 157.344 21.836Z" fill="#1B7459"/>
<path d="M120.953 13.6579C121.194 12.9182 120.568 12.0085 121.381 11.5102C121.733 11.2926 122.173 11.6249 122.272 12.0362C122.505 13.0092 121.832 13.4047 120.957 13.6579L120.953 13.6579Z" fill="#387A62"/>
</g>
<defs>
<clipPath id="clip0_651_1148">
<rect width="336.789" height="110.814" fill="white"/>
</clipPath>
</defs>
</svg>
