<?xml version="1.0" encoding="UTF-8"?>
<svg id="Layer_1" data-name="Layer 1" xmlns="http://www.w3.org/2000/svg" version="1.1" viewBox="0 0 1920 1636">
  <defs>
    <style>
      .cls-1 {
        fill: #9c0d5f;
        stroke-width: 0px;
      }
    </style>
  </defs>
  <path class="cls-1" d="M245.65,745c2.76-24.14,14.88-45.07,23.8-66.97,41.27-101.32,79.86-203.53,107.59-309.51,3.91-14.96,7.08-30.29,8.56-45.65,1.85-19.28-4.31-25.14-23.62-25.35-37.49-.42-73.73,8.32-110.14,15.55-77.97,15.5-153.22,40.92-229.45,62.79-7.04,2.02-18.35,10.3-21.82.06-3.19-9.39,10.48-11.1,17.45-13.77,70.13-26.87,138.25-57.92,203.48-95.24,31.4-17.96,62.07-36.87,89.69-60.44,26.65-22.75,28.51-44.14,6.39-71.87C274.77,80.96,219.93,41,165.36.85c-33.99-25.01-69.21-48.34-103.66-72.73-3.9-2.76-12.93-4.9-8.3-11.63,4.1-5.97,10.02.54,14.46,3C138.27-41.45,206.54,1.56,280.65,33.76c26.53,11.53,53.46,21.82,81.52,28.91,22.68,5.73,33.97-3.23,34.42-26.41.78-40.33-17.08-75.37-32.03-111.05-18.93-45.16-43.15-87.63-69.42-128.92-3.42-5.37-9.83-11.44-1.67-17.15,6.89-4.82,11.16,2.16,15.19,6.3,21.75,22.36,35.54,50.91,57.61,73.21,38.25,38.64,72.94,81.23,122.33,107.09,24.83,13,40.62,5.29,47.05-22.35,7.61-32.75,7.73-66.02,7.75-99.36.05-84.52-7.93-168.31-22.55-251.51-1.05-5.99-1.33-12.14-1.54-18.23-.16-4.7-2.52-11.32,4.05-12.76,6.03-1.33,10.64,3.66,12.66,8.92,4.77,12.41,9.22,25,12.85,37.79,24.79,87.27,60.26,170.43,97.59,252.83,7.29,16.1,16.99,31.24,26.7,46.09,12.34,18.88,22.78,18.66,34.84-.61,13.62-21.76,23.57-45.43,31.08-69.86,16.61-54.04,32.54-108.31,40.83-164.45,1.03-6.98,1.33-16.02,11.65-14.76,10.05,1.23,8.14,10.28,8.54,17.25,4.04,70.37,8.68,140.58,33.79,207.58,9.04,24.12,15.68,26.79,37.52,12.25,42.35-28.18,78.54-63.66,114.82-98.77,67.92-65.72,132.89-134.31,194.34-206.17.72-.84,1.49-1.66,2.3-2.41,5.11-4.76,10.39-13.89,17.64-8.31,8.23,6.33-1.19,12.82-4.69,18.18-61.06,93.57-118.38,189.31-168.15,289.4-11.11,22.33-21.8,44.95-28.39,69.24-6.42,23.68-1.36,32.57,22.36,35.36,46.21,5.45,92-1.42,137.27-8.53,71.67-11.25,142.88-25.51,214.19-39,13.02-2.46,25.66-7.1,38.33-11.17,5.85-1.88,10.89-.55,16.03,1.81v6.67c-68.1,22.09-135.61,45.77-201.83,73.08-65.17,26.88-131.77,50.68-190.77,90.49-26.68,18-28.13,28.95-6.58,52.94,18.26,20.33,39.29,37.66,60.82,54.33,77.37,59.89,158.58,114.15,241.88,165.4,6.72,4.14,21.46,5.69,16.67,16.07-4.84,10.49-15.91.99-23.26-2.1-99.47-41.85-202.35-73.33-306.49-100.87-32.08-8.48-64.29-17.62-98.16-16.16-16.75.72-22.9,6.56-23.69,23.23-.74,15.76,2.04,30.81,7.59,45.62,19.35,51.69,44.59,100.35,73.99,147,4.2,6.66,16.8,14.49,8.36,21.79-8.44,7.31-17.74-3.62-25.64-9.19-1.34-.95-2.4-2.31-3.57-3.5-17.93-18.27-37.26-34.98-57.75-50.29-35.14-26.26-69.9-53.32-110.75-70.43-23.55-9.86-37.48-1.79-42.21,23.17-14.57,76.93-4.79,153.72,2.32,230.44,2.45,26.43,7.29,52.63,10.93,78.95.71,5.12.69,10.62-5.33,12.49-5.23,1.62-8.58-2.69-10.42-6.49-4.09-8.45-7.5-17.25-10.75-26.07-31.12-84.39-63.51-168.23-107.11-247.2-12.65-22.91-27.7-44.17-45.38-63.58-11.02-12.1-22.78-12.46-35.42-3.38-5.39,3.87-10.36,8.37-15.28,12.85-57.88,52.69-103.7,115.61-150.18,177.89-42.82,57.37-83.82,116.04-120.47,177.62h-13.35Z"/>
  <path class="cls-1" d="M1444.79,818c1.94-16.99,10.47-31.72,16.75-47.13,29.04-71.3,56.2-143.23,75.71-217.81,2.75-10.52,4.98-21.32,6.02-32.12,1.3-13.57-3.03-17.69-16.62-17.84-26.38-.29-51.89,5.85-77.51,10.95-54.87,10.91-107.83,28.79-161.47,44.19-4.96,1.42-12.91,7.25-15.36.04-2.24-6.61,7.38-7.81,12.28-9.69,49.36-18.91,97.29-40.76,143.2-67.02,22.1-12.64,43.68-25.94,63.12-42.53,18.76-16.01,20.06-31.06,4.49-50.57-30.12-37.75-68.72-65.88-107.12-94.13-23.92-17.6-48.71-34.02-72.95-51.18-2.75-1.94-9.1-3.45-5.84-8.18,2.89-4.2,7.05.38,10.18,2.11,49.55,27.49,97.6,57.75,149.75,80.42,18.67,8.11,37.62,15.36,57.37,20.35,15.96,4.03,23.91-2.27,24.22-18.59.55-28.38-12.02-53.04-22.54-78.15-13.32-31.78-30.37-61.67-48.86-90.73-2.41-3.78-6.92-8.05-1.17-12.07,4.85-3.39,7.85,1.52,10.69,4.44,15.31,15.74,25.01,35.83,40.54,51.52,26.92,27.19,51.33,57.17,86.09,75.37,17.48,9.15,28.59,3.72,33.11-15.73,5.36-23.05,5.44-46.46,5.46-69.92.04-59.48-5.58-118.44-15.87-177-.74-4.21-.94-8.54-1.08-12.83-.11-3.31-1.77-7.96,2.85-8.98,4.24-.93,7.49,2.58,8.91,6.27,3.36,8.73,6.49,17.59,9.04,26.59,17.45,61.41,42.41,119.94,68.68,177.93,5.13,11.33,11.95,21.99,18.79,32.44,8.69,13.29,16.03,13.13,24.52-.43,9.58-15.31,16.59-31.97,21.87-49.16,11.69-38.03,22.9-76.22,28.73-115.73.73-4.91.93-11.28,8.2-10.39,7.07.87,5.73,7.23,6.01,12.14,2.85,49.52,6.11,98.93,23.78,146.08,6.36,16.97,11.03,18.85,26.4,8.62,29.8-19.83,55.27-44.8,80.81-69.51,47.79-46.25,93.52-94.52,136.77-145.09.51-.59,1.05-1.17,1.62-1.7,3.6-3.35,7.31-9.77,12.42-5.85,5.79,4.45-.84,9.02-3.3,12.8-42.97,65.85-83.31,133.22-118.34,203.66-7.81,15.72-15.34,31.63-19.98,48.73-4.52,16.67-.96,22.92,15.74,24.89,32.52,3.83,64.74-1,96.6-6,50.44-7.92,100.55-17.95,150.74-27.44,9.16-1.73,18.06-5,26.97-7.86,4.11-1.32,7.67-.39,11.28,1.27v4.7c-47.92,15.55-95.43,32.21-142.03,51.43-45.86,18.91-92.73,35.67-134.25,63.68-18.78,12.67-19.8,20.37-4.63,37.25,12.85,14.31,27.65,26.5,42.8,38.23,54.44,42.14,111.6,80.33,170.22,116.4,4.73,2.91,15.1,4.01,11.73,11.31-3.41,7.38-11.2.7-16.37-1.48-70-29.45-142.4-51.6-215.69-70.98-22.58-5.97-45.24-12.4-69.08-11.37-11.78.51-16.12,4.62-16.67,16.35-.52,11.09,1.44,21.68,5.34,32.1,13.62,36.38,31.38,70.62,52.07,103.45,2.95,4.69,11.82,10.2,5.88,15.34-5.94,5.14-12.49-2.55-18.04-6.47-.95-.67-1.69-1.62-2.51-2.46-12.62-12.86-26.22-24.62-40.64-35.39-24.73-18.48-49.19-37.53-77.94-49.57-16.57-6.94-26.38-1.26-29.71,16.31-10.26,54.14-3.37,108.18,1.63,162.17,1.72,18.6,5.13,37.04,7.69,55.56.5,3.6.48,7.48-3.75,8.79-3.68,1.14-6.04-1.89-7.33-4.57-2.88-5.94-5.28-12.14-7.57-18.34-21.9-59.39-44.69-118.39-75.37-173.96-8.9-16.12-19.5-31.08-31.94-44.74-7.75-8.51-16.03-8.77-24.93-2.38-3.79,2.72-7.29,5.89-10.75,9.04-40.73,37.08-72.98,81.36-105.69,125.19-30.13,40.38-58.99,81.66-84.78,125h-9.4Z"/>
  <path class="cls-1" d="M109.75,1376.92c10.35-12.46,24.74-19.72,37.7-28.68,59.98-41.47,118.8-84.41,172.92-133.43,7.64-6.92,15-14.32,21.43-22.35,8.07-10.08,6.76-15.6-3.93-22.76-20.76-13.91-44.17-22.26-67.12-31.5-49.15-19.79-100.4-33.06-150.91-48.67-4.67-1.44-13.99-.95-12.2-7.93,1.65-6.4,9.89-2.37,14.76-1.31,48.93,10.59,98.26,18.11,148.26,21.09,24.07,1.43,48.08,2.08,72.09-1,23.17-2.97,32-14.22,29.78-37.76-4.31-45.54-20.33-87.84-36.12-130.15-9.84-26.35-20.98-52.21-31.3-78.39-1.17-2.96-5.42-7.45-.39-9.52,4.47-1.83,5.39,3.96,6.97,6.95,25.03,47.48,47.44,96.37,77.03,141.37,10.6,16.11,21.86,31.68,34.93,45.87,10.56,11.47,20.13,10.59,28.84-2.18,15.15-22.22,17.97-48.28,22.64-73.64,5.91-32.1,7.89-64.63,8.3-97.25.05-4.25-1.31-9.97,5.33-10.17,5.6-.17,5.44,5.28,6.17,9.06,3.98,20.41,1.26,41.37,5.44,61.86,7.25,35.51,11.06,71.93,29.18,104.37,9.11,16.31,20.73,17.77,34.4,4.69,16.19-15.5,28.4-34.01,40.57-52.6,30.86-47.14,56.97-96.79,79.17-148.54,1.6-3.72,3.68-7.26,5.79-10.73,1.62-2.68,2.72-7.23,6.91-5.64,3.85,1.46,4.6,5.92,3.81,9.59-1.87,8.66-3.98,17.31-6.61,25.77-18,57.73-28.55,117.06-37.78,176.65-1.8,11.64-1.92,23.63-1.92,35.45,0,15.03,5.9,18.72,19.66,12.37,15.53-7.17,29.72-16.75,42.82-27.64,28.98-24.09,57.66-48.56,82.77-76.85,3.12-3.52,6.59-8.45,11.88-3.98,5.16,4.35.79,8.7-1.53,12.74-23.41,40.73-46.44,81.59-56.87,128.14-3.75,16.75-1.02,20.66,16.46,20.52,33.91-.27,67.04-6.86,100.09-13.22,61.86-11.89,123.13-26.45,183.63-44.13.71-.21,1.44-.38,2.17-.51,4.59-.79,10.86-3.96,12.87,1.8,2.28,6.53-5.34,6.72-9.25,8.43-68.2,29.93-135.1,62.43-199.38,100.12-14.34,8.41-28.56,17.12-41.09,28.28-12.22,10.87-12.64,17.67-.42,27.89,23.8,19.9,51.85,32.77,79.69,45.31,44.09,19.87,89.02,37.89,133.72,56.38,8.16,3.38,16.9,5.4,25.46,7.75,3.95,1.08,6.28,3.67,8.28,6.86l-2.43,3.72c-46.05-12.52-92.35-23.93-139.26-32.85-46.16-8.78-92-19.79-139.44-19.11-21.45.31-26.25,5.89-22.98,27.13,2.77,18,8.18,35.34,14.11,52.5,21.32,61.63,46.83,121.53,74.61,180.51,2.24,4.76,9.9,11,3.44,15.05-6.53,4.08-9.24-5.25-12.21-9.66-40.22-59.63-86.14-114.72-134.2-168.07-14.8-16.44-29.44-33.28-48.87-44.82-9.61-5.71-15.17-4.69-21.69,4.32-6.16,8.52-10.1,17.93-12.41,28.22-8.06,35.9-11.73,72.25-12.34,109-.09,5.25,4.09,14.21-3.29,15.21-7.37,1-8.58-8.49-10.95-14.48-.4-1.02-.5-2.16-.72-3.25-3.34-16.74-8.03-33.11-13.87-49.12-10.03-27.47-19.55-55.25-36.1-79.69-9.54-14.09-20.26-14.67-32-2.47-36.19,37.6-58.75,84.01-82.76,129.41-8.27,15.64-15.13,32.02-22.7,48.03-1.47,3.11-3.49,6.18-7.53,5.03-3.51-1-3.81-4.63-3.45-7.42.8-6.2,2.11-12.36,3.51-18.46,13.42-58.43,25.93-117.02,30.42-176.98,1.3-17.4.65-34.75-2.13-52.02-1.73-10.77-8.17-15.26-18.53-14.81-4.42.19-8.83.89-13.21,1.59-51.51,8.28-100.02,26.67-148.67,44.46-44.82,16.39-89.09,34.16-132,55.15-2.48-1.62-4.97-3.25-7.45-4.87Z"/>
  <path class="cls-1" d="M1509.4,1607c1.79-14.89,9.66-27.8,15.45-41.3,26.78-62.48,51.84-125.52,69.83-190.88,2.54-9.22,4.6-18.68,5.56-28.15,1.2-11.89-2.8-15.5-15.33-15.63-24.33-.26-47.86,5.13-71.49,9.59-50.61,9.56-99.45,25.23-148.93,38.72-4.57,1.25-11.91,6.35-14.16.04-2.07-5.79,6.8-6.84,11.33-8.49,45.52-16.57,89.73-35.72,132.07-58.74,20.38-11.08,40.29-22.74,58.22-37.28,17.3-14.03,18.5-27.22,4.15-44.32-27.78-33.09-63.38-57.73-98.8-82.49-22.06-15.42-44.92-29.81-67.28-44.85-2.53-1.7-8.39-3.02-5.39-7.17,2.66-3.68,6.5.33,9.39,1.85,45.7,24.09,90.01,50.61,138.12,70.47,17.22,7.11,34.7,13.46,52.91,17.83,14.72,3.53,22.05-1.99,22.34-16.29.51-24.87-11.09-46.48-20.79-68.49-12.29-27.85-28.01-54.04-45.06-79.51-2.22-3.31-6.38-7.05-1.08-10.57,4.47-2.97,7.24,1.33,9.86,3.89,14.12,13.79,23.07,31.4,37.39,45.15,24.83,23.83,47.34,50.1,79.4,66.05,16.12,8.02,26.37,3.26,30.54-13.79,4.94-20.2,5.02-40.72,5.03-61.28.03-52.13-5.14-103.8-14.63-155.11-.68-3.69-.87-7.49-1-11.24-.1-2.9-1.64-6.98,2.63-7.87,3.91-.82,6.91,2.26,8.22,5.5,3.1,7.65,5.98,15.42,8.34,23.3,16.09,53.82,39.11,105.11,63.34,155.93,4.73,9.93,11.03,19.27,17.33,28.43,8.01,11.64,14.79,11.51,22.62-.38,8.84-13.42,15.3-28.02,20.18-43.08,10.78-33.33,21.12-66.8,26.5-101.42.67-4.3.86-9.88,7.56-9.1,6.53.76,5.28,6.34,5.54,10.64,2.62,43.4,5.63,86.7,21.93,128.02,5.87,14.87,10.18,16.52,24.35,7.56,27.49-17.38,50.98-39.26,74.53-60.91,44.08-40.53,86.26-82.83,126.14-127.15.47-.52.97-1.02,1.49-1.49,3.32-2.93,6.74-8.57,11.45-5.12,5.34,3.9-.77,7.91-3.04,11.21-39.63,57.71-76.84,116.75-109.14,178.48-7.21,13.77-14.15,27.72-18.42,42.7-4.17,14.61-.88,20.09,14.52,21.81,30,3.36,59.72-.88,89.1-5.26,46.52-6.94,92.74-15.73,139.03-24.05,8.45-1.52,16.65-4.38,24.88-6.89,3.79-1.16,7.07-.34,10.41,1.12v4.12c-44.2,13.62-88.02,28.23-131,45.07-42.3,16.58-85.52,31.26-123.82,55.81-17.32,11.1-18.26,17.85-4.27,32.65,11.85,12.54,25.5,23.23,39.48,33.51,50.22,36.93,102.93,70.4,156.99,102.01,4.36,2.55,13.93,3.51,10.82,9.91-3.14,6.47-10.33.61-15.1-1.3-64.56-25.81-131.34-45.22-198.94-62.21-20.82-5.23-41.73-10.87-63.71-9.97-10.87.44-14.86,4.05-15.37,14.33-.48,9.72,1.32,19,4.92,28.13,12.56,31.88,28.94,61.88,48.03,90.66,2.72,4.11,10.91,8.94,5.43,13.44-5.48,4.51-11.52-2.23-16.64-5.67-.87-.59-1.56-1.42-2.32-2.16-11.64-11.27-24.19-21.57-37.48-31.02-22.81-16.19-45.37-32.89-71.89-43.44-15.28-6.08-24.33-1.11-27.4,14.29-9.46,47.45-3.11,94.8,1.51,142.12,1.59,16.3,4.73,32.46,7.09,48.69.46,3.16.45,6.55-3.46,7.71-3.39,1-5.57-1.66-6.76-4-2.65-5.21-4.87-10.64-6.98-16.07-20.2-52.04-41.22-103.75-69.52-152.45-8.21-14.13-17.98-27.24-29.45-39.21-7.15-7.46-14.79-7.69-22.99-2.09-3.5,2.39-6.72,5.16-9.92,7.92-37.57,32.5-67.31,71.3-97.48,109.71-27.79,35.38-54.41,71.56-78.19,109.54h-8.67Z"/>
</svg>