<?xml version="1.0" encoding="UTF-8"?>
<svg id="Layer_1" data-name="Layer 1" xmlns="http://www.w3.org/2000/svg" version="1.1" viewBox="0 0 500 500">
  <defs>
    <style>
      .cls-1 {
        fill: #9c0d5f;
        stroke-width: 0px;
      }
    </style>
  </defs>
  <path class="cls-1" d="M98.03,441c.89-7.82,4.82-14.61,7.71-21.7,13.37-32.83,25.88-65.95,34.86-100.29,1.27-4.85,2.29-9.82,2.77-14.79.6-6.25-1.4-8.15-7.65-8.22-12.15-.13-23.89,2.69-35.69,5.04-25.26,5.02-49.65,13.26-74.35,20.35-2.28.65-5.95,3.34-7.07.02-1.03-3.04,3.4-3.6,5.66-4.46,22.73-8.71,44.8-18.77,65.94-30.86,10.18-5.82,20.11-11.95,29.06-19.59,8.64-7.37,9.24-14.3,2.07-23.29-13.87-17.38-31.64-30.33-49.32-43.35-11.01-8.1-22.43-15.66-33.59-23.57-1.26-.9-4.19-1.59-2.69-3.77,1.33-1.93,3.25.17,4.69.97,22.82,12.66,44.94,26.59,68.96,37.03,8.6,3.74,17.32,7.07,26.42,9.37,7.35,1.86,11.01-1.05,11.15-8.56.25-13.07-5.53-24.42-10.38-35.98-6.13-14.63-13.98-28.4-22.5-41.78-1.11-1.74-3.18-3.71-.54-5.56,2.23-1.56,3.62.7,4.92,2.04,7.05,7.25,11.52,16.5,18.67,23.72,12.4,12.52,23.64,26.32,39.64,34.7,8.05,4.21,13.16,1.71,15.25-7.24,2.47-10.61,2.51-21.39,2.51-32.2.02-27.39-2.57-54.54-7.31-81.5-.34-1.94-.43-3.93-.5-5.91-.05-1.52-.82-3.67,1.31-4.14,1.95-.43,3.45,1.19,4.1,2.89,1.55,4.02,2.99,8.1,4.16,12.24,8.03,28.28,19.53,55.23,31.62,81.93,2.36,5.22,5.5,10.12,8.65,14.94,4,6.12,7.38,6.05,11.29-.2,4.41-7.05,7.64-14.72,10.07-22.64,5.38-17.51,10.54-35.1,13.23-53.29.33-2.26.43-5.19,3.78-4.78,3.26.4,2.64,3.33,2.77,5.59,1.31,22.8,2.81,45.55,10.95,67.27,2.93,7.82,5.08,8.68,12.16,3.97,13.72-9.13,25.45-20.63,37.21-32.01,22.01-21.3,43.06-43.52,62.98-66.81.23-.27.48-.54.75-.78,1.66-1.54,3.37-4.5,5.72-2.69,2.67,2.05-.38,4.15-1.52,5.89-19.79,30.32-38.36,61.34-54.49,93.78-3.6,7.24-7.06,14.57-9.2,22.44-2.08,7.67-.44,10.55,7.25,11.46,14.98,1.76,29.81-.46,44.48-2.76,23.23-3.65,46.3-8.27,69.41-12.64,4.22-.8,8.31-2.3,12.42-3.62,1.89-.61,3.53-.18,5.2.59v2.16c-22.07,7.16-43.94,14.83-65.4,23.68-21.12,8.71-42.7,16.42-61.82,29.32-8.65,5.83-9.11,9.38-2.13,17.15,5.92,6.59,12.73,12.2,19.71,17.6,25.07,19.41,51.39,36.99,78.38,53.6,2.18,1.34,6.95,1.84,5.4,5.21-1.57,3.4-5.16.32-7.54-.68-32.23-13.56-65.57-23.76-99.32-32.69-10.4-2.75-20.83-5.71-31.81-5.24-5.43.23-7.42,2.13-7.68,7.53-.24,5.11.66,9.98,2.46,14.78,6.27,16.75,14.45,32.52,23.98,47.63,1.36,2.16,5.44,4.7,2.71,7.06-2.74,2.37-5.75-1.17-8.31-2.98-.44-.31-.78-.75-1.16-1.13-5.81-5.92-12.07-11.34-18.71-16.3-11.39-8.51-22.65-17.28-35.89-22.82-7.63-3.2-12.15-.58-13.68,7.51-4.72,24.93-1.55,49.81.75,74.67.79,8.56,2.36,17.06,3.54,25.58.23,1.66.22,3.44-1.73,4.05-1.69.53-2.78-.87-3.38-2.1-1.32-2.74-2.43-5.59-3.48-8.45-10.08-27.35-20.58-54.51-34.71-80.1-4.1-7.42-8.98-14.31-14.7-20.6-3.57-3.92-7.38-4.04-11.48-1.1-1.75,1.25-3.36,2.71-4.95,4.16-18.76,17.07-33.6,37.46-48.66,57.64-13.88,18.59-27.16,37.6-39.04,57.56h-4.33Z"/>
</svg>